<?xml version="1.0" encoding="UTF-8"?>
<svg version="1.1" viewBox="0 0 1600 1600" width="500" height="500" xmlns="http://www.w3.org/2000/svg">
<path transform="translate(781,303)" d="m0 0h23l34 2 32 4 36 7 27 7 26 9 27 12 26 13 20 12 18 13 16 12 13 11 11 9 29 29 11 14 12 14 12 16 12 18 13 21 14 27 11 25 13 38 5 19 5 24 6 33 2 27v30l-2 33-6 36-8 32-7 19-5 18-9 15-3 11-9 13-4 11-6 7-7 13-4 5-5 9-4-1-25-25-1-3-4-2-4-4v-2h-2v-2l-3-1-7-8-10-11-7-8-12-13-10-9-5-4 2-5 10-19 8-20 7-24 4-17 4-27 1-10v-52l-3-22-5-24-6-20-6-18-9-20-11-22-11-17-9-12-11-14-9-10-7-8-11-11-8-7-16-13-21-14-10-6-29-13-20-7-21-6-23-5-28-3h-55l-26 3-36 8-27 9-26 12-20 12-18 12-14 11-27 27-11 14-8 10-4 6v4l5 2 347 1 18 3 17 6 15 8 13 10 10 10 11 15 9 17 6 24 1 7v18l-3 15-5 16-8 16-8 10-10 10-15 10-16 8-18 6-15 3-8 1h-41l-36-1-323-1-13-1h-57l-20 1h-37l-2-5-1-7-1-21v-21l1-15 4-2 18-1h453l49 2h12l8-2 6-4 3-1 8-16v-19l-6-12-9-8-8-3-12-2h-173l-245 2h-96l-1-5 7-28 6-21 6-16 7-14 11-23 10-18 11-18 12-17 9-12 13-16 13-15 20-20 11-9 11-10 15-11 18-12 19-12 21-12 27-13 26-10 28-9 30-7 38-6z" fill="#207176"/>
<path transform="translate(859,828)" d="m0 0h50l17 1 13 4 9 5 13 11 8 7 10 9 17 17 7 8 8 8 7 8 6 6v2h2l7 8 20 20 8 7 33 33 7 8 24 24 8 7 13 12 10 10 7 8 9 10 28 28 7 8 17 17 8 7 7 7 6 10 1 8-2 9-3 4-3 1h-55l-70-1-8-1-9-9-9-11-46-46-8-7-27-27-7-8-48-48-8-7-34-34-8-7-19-19-8-7-14-12-17-12-7-2h-284l6 9 9 11 8 10 14 15 8 8 22 18 22 15 25 15 23 11 30 10 25 6 22 4 12 1h50l21-2 30-6 13-5 6-1 12 13 16 16 8 7 17 16 6 5v2l3 1 3 3v2l3 1v2l4 2 11 11 11 9v2h2l2 5-12 5-29 11-24 8-33 9-38 7-35 4-15 1h-25l-25-2-31-4-33-7-35-11-28-11-29-14-15-8-16-10-18-12-14-10-14-11-11-10-8-7-22-22-7-8-12-14-13-17-16-24-11-19-14-27-13-30-10-31-5-17v-5l14-1 30-1h100l46 1h152l63-1z" fill="#084A54"/>
<path transform="translate(567,563)" d="m0 0h341l18 3 17 6 15 8 13 10 10 10 11 15 9 17 6 24 1 7v18l-3 15-5 16-8 16-8 10-10 10-15 10-16 8-18 6-15 3-8 1h-41l-36-1-323-1-13-1h-57l-20 1h-37l-2-5-1-7-1-21v-21l1-15 4-2 18-1h453l49 2h12l8-2 6-4 3-1 8-16v-19l-6-12-9-8-8-3-12-2h-173l-169 1-3-9v-13l3-13 2-5 3-9 2-7 3-17z" fill="#2E9495"/>
<path transform="translate(859,828)" d="m0 0h50l17 1 13 4 9 5 13 11 8 7 10 9 17 17 7 8 8 8 7 8 6 6v2h2l7 8 20 20 8 7 33 33 7 8 24 24 8 7 13 12 10 10 7 8 9 10 28 28 7 8 17 17 8 7 7 7 6 10 1 8-2 9-3 4-3 1h-55l-70-1-8-1-9-9-9-11-46-46-8-7-27-27-7-8-48-48-8-7-34-34-8-7-19-19-8-7-14-12-17-12-7-2h-284l-1 2-2-4-9-7-9-17-1-3-5-5-4-3v-2l-4-2-5-4-1-5-2-1 1-5 7-9 5-3 9-3h196l63-1z" fill="#207176"/>
<path transform="translate(781,303)" d="m0 0h23l34 2 32 4 36 7 27 7 26 9 27 12 26 13 20 12 3 3v2l11 8 6 5 5 3 2 3-3 4h-2l-3 9-6 7-3 4-3 7-2 3v6l2 5 3 1 1 4 4 2 3 5v5l-3 1v-2l-4-1-12-11-13-10-13-9-16-9-18-10-30-13-17-6-19-6-17-4-6-2-31-5-13-2h-71l-16 2-32 6-16 4-30 10-15 6-20 9-17 9-19 12-19 13-11 8h-2l-1 3-9 7-13 12-11 11-7 8-10 11-7 11-10 13-16 26-12 27-7 16-5 11-1 2h-5l-7-14-9-6-18-6-9-7-1-3h-2l-1-5-2-1 3-9 13-26 13-22 10-15 12-17 13-16 9-11 12-13 16-16 11-9 11-10 15-11 18-12 19-12 21-12 27-13 26-10 28-9 30-7 38-6z" fill="#64D2CD"/>
<path transform="translate(567,563)" d="m0 0h341l18 3 17 6 15 8 13 10 10 10 6 9h-8l-4 4h-2v2l-13 4-7 2-2 2-9 1-8 4-5 4-2 4-8 2-1 3-12-3-8-1h-173l-169 1-3-9v-13l3-13 2-5 3-9 2-7 3-17z" fill="#2E9495"/>
<path transform="translate(1074,964)" d="m0 0 4 2 16 16 7 8 24 24 8 7 13 12 10 10 7 8 9 10 28 28 7 8 17 17 8 7 7 7 6 10 1 8-2 9-3 4-3 1h-55l-70-1-8-1-9-9-9-11-46-46-8-7-27-27-7-8-17-17v-3l7-1 6-5 14 1 15 2 1-2 4 3h15l-2-9-4-6-14-16-7-12v-8l5-5 9-3 15 2 13 3h13l4-1 2 1-1-6h-2z" fill="#084A54"/>
<path transform="translate(1209,597)" d="m0 0 2 1 8 25 7 30 5 27 3 21 1 18v30l-2 33-6 36-8 32-7 19-5 18-9 15-3 11-9 13-4 11-6 7-7 13-4 5-5 9-4-1-25-25-1-3-4-2-4-4v-2h-2v-2l-3-1-6-7 1-5 6-8 9-15 13-26 6-18 7-23 5-24 6-44 2-40v-14l-2-21-7-39-2-11 2-9 1-10 6-8 4-1 10 2 14 7v2l6 5 1 2 7 1 3-2 1-8-2-17z" fill="#042830"/>
<path transform="translate(979,608)" d="m0 0 9 1 8 13 6 13 5 21 1 7v18l-3 15-5 16-8 16-8 10-10 10-15 10-16 8-18 6-15 3-8 1h-41l-67-2-115-1-6-1h-5v-2l-5 2h-4v-2h-3v2l-8-2-2-2-4-2 10-1 5-1-2-3-3-1v-2l3-1v2l3-3-8 1 2-4 5-1 2-5 6-3 2-2 20-2 6-1 5 1 9-1h7l6-2h15l5-1 16-1 12-2 16-1 2-1 17-1 13-4 2-2 11-1 8-6 4-1 4-4h2l-5-5-8-1 4-2 1-1h30l39 1 8-2 6-4 3-1 8-16v-19l-6-12-9-8v-5l9-2 3-5 5-4 7-3 9-1 4-3 10-2 5-2h3v-2l4-1z" fill="#207176"/>
<path transform="translate(941,1066)" d="m0 0 4 1 8 7 4 4v2l3 1 3 3v2l3 1v2l4 2 11 11 11 9v2h2l2 5-12 5-29 11-24 8-33 9-38 7-35 4-15 1h-25l-25-2-31-4-33-7-35-11-28-11-29-14-6-3 1-3 3-1 5 1v-2l6-1-1-4 5-8 5-4 6-2 7-3 9-1 4-2 4 1v-5l10-4h10l7 3 23 7 24 6 45 6 12 1h41l17-2 29-5 14-4 16-4 31-10z" fill="#042830"/>
<path transform="translate(781,303)" d="m0 0h23l34 2 32 4 36 7 27 7 26 9 27 12 26 13 20 12 3 3v2l11 8 6 5 5 3 2 3-3 4h-2l-3 9-6 7-3 4-3 7-2 3v6l2 5 3 1 1 4 4 2 3 5v5l-3 1v-2l-4-1-12-11-13-10-13-9-16-9-18-10-30-13-17-6-19-6-17-4-6-2-31-5-13-2h-71l-20 2 2-2 8-3 2-2h11l1-2-2-1h-18l1-2 5-2h15l-3-6v-2l-7 2-3-1 10-8-1-4h4v-4l-4-1 1-4-4-1-1-3-8-2 4-2 3-1 1-2h2v-2h2l-2-3h-14l-6 1v2h-8l-1-3h-3v-2l18-3z" fill="#59C3C0"/>
<path transform="translate(429,830)" d="m0 0h25l6 16 5 14 7 17 6 17 8 16 8 15 10 16 10 14 11 13 8 10 9 10 5 5 5 4 5 5 8 11v5l-6 4-11 3-10 5h-6l-3 4h-2v2l-5 5v5l-2 2-5 1-1 3-28-28-7-8-12-14-13-17-16-24-11-19-14-27-13-30-10-31-5-17v-5l14-1z" fill="#207176"/>
<path transform="translate(767,365)" d="m0 0h71l19 3 29 5 14 4 17 5 16 5 29 12 16 8 17 9 10 6 13 9 16 13 10 9 3 1v2l2-1v-5l-4-6-3-3-4-5-2-3v-6l4-6 2-5 7-9 5-10 4-4-3-4-7-4-7-6-6-4-2-3 5 1 28 21 13 11 11 9 29 29 11 14 12 14 7 9 2 6 7 11-2 1-1 3-4-2-5-6-6-1v3l-6 5-2 4-10 5-7 3-4 3-1 3v8l5 12 5 11 3 7 4 7 2 5 5 10 3 9 5 16 3 9 4 13 3 9 3 11 3 12 2 16 3 14v15l-1 15-1 7-7-1-4-5-2-12-2-2-4-16-4-8-5-9-6-27-2-5-1-7-7-14-6-8 1-7-4-1-7-11-4-7-3-9-2-3v-5h-2l-2-5-3-6-2-8-1-10v-13l-2-4 1-4v-3l2-5v-6l-6-8v-2l-4-2-6-8-9-10-6-7v-2h-2l-7-8-10-9-6-4-5-5-14-11-24-14-16-8-19-9-22-9-14-4-26-7-32-6-15-2h-77l-17 1v-1l9-2z" fill="#2E9394"/>
<path transform="translate(1169,1079)" d="m0 0 5 1-3 3-10 4-5 5-4 1v2l-7 4h-2l-1 3-2 1 1 6-10 6-3 3-8 3 14-2 8-2 11-6 8-4 11-2 2-2 7-1 7-4h6l8 3h3l-2-4-3-4 1-2 23 23 8 7 7 7 6 10 1 8-2 9-3 4-3 1h-55l-70-1-8-1-9-9-9-11-5-5v-4l5 1 9-2 1-1 7-1h-15l-9-3-6-5-6-1v-5h2l1-3 4 1 2-2h22l11-3 10-9 2-2v2l9-5 4-4h8l2 1v-2l5 1 7-3 1-3h8z" fill="#042931"/>
<path transform="translate(1149,482)" d="m0 0 5 5 12 18 13 21 14 27 11 25 6 17-1 6 2 16-1 8-4 3-7-1-5-6-6-5-10-5-12-2-5 5-2 3-2 14-1 6 2 10v5l-2-1-5-16-2-9-3-7-4-14-3-9-4-11-5-14-3-4-3-7-4-8-5-13-3-5-3-8v-8l3-5 6-4 10-4 4-1 2-5 3-1 1-3h2v-3l4-1 6 5 3 4h2l2-3-7-11z" fill="#1F7075"/>
<path transform="translate(594,953)" d="m0 0 8 6 14 12 25 17 25 15 23 11 5 2 3 3 12 5 10 4v2l9 2 7 3 16 6 1 1v5l-6 4-2 8-4 6h-6l-5 3-13 1-4 1h-11l-6 1-1 3-14 1-19-7-14-6-5-3-7-4v-2h-2v-2l-10-3-6-4-1-5 7 1 3-9-1-5-4-4-2-8-4-8-6-8 1-5-4-2-3-8-2-7-3-3-2-5-2-1-3-5-1-1v-6z" fill="#1F7075"/>
<path transform="translate(859,828)" d="m0 0h50l17 1 13 4 9 5 13 11 8 7 10 9 14 14-2 1-2 8-3 2-5-1v2l-8 3h-5v2l-16 4-7 3-5 1-6-3-8-7-9-7-10-4-7-2-7-3-6-3-4-3-5-2-5-4-6-6-13-2h-8l-4-2-15-5-4-2-3-6h-3l-1-4h3l1-3 10-2 2-3-8-1v-1z" fill="#2E9495"/>
<path transform="translate(1209,597)" d="m0 0 2 1 8 25 7 30 5 27 3 21 1 18v30h-1l-1-7-4 1 1-5 3-6v-3l-4 3h-8l-8-5-11-8-5-4-1-4-5-2-7-6-7-1-6-1-3 13h2v-2l4-1v2l5 2-1 3 9 2 10 9 11 8 10 5 5 2v2l-7-1-12-6-1-3-4-2-5-5-7-6-10-1-6-1-2 6-2 18-1 18-3 24-3 18h-1l1-15 4-29 2-40v-14l-2-21-7-39-2-11 2-9 1-10 6-8 4-1 10 2 14 7v2l6 5 1 2 7 1 3-2 1-8-2-17z" fill="#084A54"/>
<path transform="translate(407,561)" d="m0 0 3 1v5h2l4 5 9 5 15 5 5 4 5 3 5 10 1 3 5 1 2-6 8-18 3-7 1 3-5 13-5 12-5 14-5 24-17 1h-54l-1-5 7-28 6-21 6-16z" fill="#2E9495"/>
<path transform="translate(440,834)" d="m0 0h13l5 10 4 13 7 20 6 18-3 7-6 2-6-1-6-8-2-6h-2l-3-7-5-4-3-3-10-4-4 1-6-3-11-3-4 2-1 3h-6l-1 2-3-11 5-1v-9l2-5 5-4 9-2 14-6z" fill="#2E9394"/>
<path transform="translate(431,515)" d="m0 0 1 3-4 7h-2l-1 7-2 7-1 3 5 1 8 1 1 1h19l7 5 5 5 7 10h3l-1 5-9 20-5 11-1 2h-5l-7-14-9-6-18-6-9-7-1-3h-2l-1-5-2-1 3-9 13-26 6-10z" fill="#59C2BF"/>
<path transform="translate(631,1058)" d="m0 0 8 2 4 2-4 5h-2l-2 6 2 5-9 6-10 3v2l-5 5-6 8-9 2h-7l-5-3 1-2 6 2-2-7 1-2-1-3v-8l5-6 9-3h7v-2h2v-2l5-1 1-3 8-2 1-3z" fill="#042830"/>
<path transform="translate(480,626)" d="m0 0h8l13 4 4 2 1 4-1 1-19 1-6 1h-22l-1-2 3-9 9-1z" fill="#094C56"/>
<path transform="translate(494,760)" d="m0 0 1 2 12 2 1-2 14 2v2h2v2h3v3l5-2 3 2 14 1 20 1v1h-67l-3-2-5-1 2-2 4-1-9-3-1-3z" fill="#217479"/>
<path transform="translate(1195,907)" d="m0 0 1 4-7 11-5 8-2 7-6 7-7 13-4 5-5 9-4-1-4-5h4v-2h2l2-5 5-1 2-5h2l2-6 4-7h2l1-5 3-7 2-1v-3l3-2 2-6h2v-2l3-3z" fill="#0D525B"/>
<path transform="translate(1172,711)" d="m0 0h2v2l5 2-1 3 9 2 10 9 11 8 10 5 5 2v2l-7-1-12-6-1-3-4-2-5-5-7-6-10-1-6-1-3 1v-7z" fill="#074852"/>
<path transform="translate(1153,829)" d="m0 0h1l-1 9-9 29-7 16-12 22-1 2h-2l-1 5-7 10h-3l2-4 6-9 8-13 13-26 6-18z" fill="#084A54"/>
<path transform="translate(590,431)" d="m0 0 2 1-9 7-16 12-11 11h-2v2l-8 7-5 6-8 7-10 11-1 2h-2l-2 5-3 2 2-5 8-10 9-9 7-8 14-14 11-9 7-6z" fill="#2E9495"/>
<path transform="translate(1069,1117)" d="m0 0 7 1 6 5 7 2h21l-4 2-9 1-4 2-7 1-4-2-1 3-12-12z" fill="#0A4E57"/>
<path transform="translate(1214,856)" d="m0 0 2 1-7 22-3 10-7 11-1-3 3-9 2-7 9-18z" fill="#0D545D"/>
<path transform="translate(1170,950)" d="m0 0 1 3-3 5-5 8-3 5-4-1-4-5h4v-2h2l2-5 5-1 2-5z" fill="#0C535C"/>
<path transform="translate(919,1048)" d="m0 0 4 2 5 4 6 8-2 3-4-1-6-4-4-10z" fill="#207176"/>
<path transform="translate(462,467)" d="m0 0h2l-2 4-2 5h-3v3h-2l-2 6-2 1-3 5-3 3-1 5-3-1 2-5 10-14z" fill="#55BFBC"/>
<path transform="translate(1195,907)" d="m0 0 1 4-7 11-5 8-3-4h2v-3l3-2 2-6h2v-2l3-3z" fill="#0E565E"/>
<path transform="translate(601,961)" d="m0 0 4 1 10 8 6 4v2l-4-1v-2l-5-1v-2l-7-1v-2h-2z" fill="#0E555D"/>
<path transform="translate(386,628)" d="m0 0 4 1v2h2v6l3-1v2h-9l-2-4 1-5z" fill="#217378"/>
<path transform="translate(531,769)" d="m0 0 4 2 14 1 20 1v1h-39l-1-4z" fill="#207176"/>
<path transform="translate(462,830)" d="m0 0h34v1l-20 1h-5v1l-10-1z" fill="#042830"/>
<path transform="translate(478,448)" d="m0 0h2l-2 4-8 11h-3l2-5z" fill="#57C0BD"/>
<path transform="translate(514,504)" d="m0 0v3l-7 10-8 11-3 3 2-5 9-13z" fill="#2E9495"/>
<path transform="translate(515,410)" d="m0 0 3 1-5 5-8 7-1-3z" fill="#5CC7C3"/>
<path transform="translate(555,379)" d="m0 0 2 1-4 4-8 6h-3v-2z" fill="#5CC6C3"/>
<path transform="translate(653,328)" d="m0 0h5l-3 2-4 2-2-1v2l-6 2-4-1 9-4z" fill="#58C2BF"/>
<path transform="translate(431,515)" d="m0 0 1 3-4 7-5 3 2-5 4-7z" fill="#54BDBB"/>
<path transform="translate(440,498)" d="m0 0 2 2-1 5h-3v2h-2v2l-2-1z" fill="#4DB5B3"/>
<path transform="translate(665 1e3)" d="m0 0 5 1 7 4v2l-5-1-7-5z" fill="#0E565E"/>
<path transform="translate(688,317)" d="m0 0h5l-4 3-10 2v-2z" fill="#5BC5C1"/>
<path transform="translate(641,990)" d="m0 0 5 1 8 5v2l-6-2-7-5z" fill="#105961"/>
<path transform="translate(385,832)" d="m0 0h4v7l-2 1-2-3z" fill="#0C515A"/>
</svg>
